<svg width="1336" height="417" viewBox="0 0 1336 417" fill="none" xmlns="http://www.w3.org/2000/svg">
<path d="M103.089 378.185C88.6734 379.003 76.6679 378.373 56.5288 375.289L27.4285 373.551C24.3604 373.017 22.4423 373.034 22.7725 369.497V364.284C22.7725 364.284 14.6244 363.705 11.7144 360.809C12.2964 344.592 0.290176 288.411 0.0742928 282.619C-0.14159 276.827 0.0742974 271.614 1.2383 268.718C10.5504 261.768 21.6085 260.61 21.6085 260.61L117.639 259.452C100.139 287.132 93.7772 335.325 103.089 378.185Z" fill="black"/>
<path d="M937.685 366.601L332.981 372.972L332.399 337.063L940.013 327.216L937.685 366.601Z" fill="black"/>
<path d="M1335.19 229.334C1337.7 235.611 1334.01 248.88 1328.79 270.456C1331.74 271.8 1332.61 273.083 1332.87 276.248C1331.57 287.038 1327.84 295.487 1311.91 317.949C1320.91 318.259 1323.73 318.626 1324.14 319.687C1324.55 329.57 1324.07 335.143 1321.23 345.171H1279.9C1244 352.486 1213.92 355.625 1166.41 360.23C1165.25 304.628 1168.45 267.515 1121.6 232.23L1158.85 229.913L1321.23 223.542C1329.76 225.228 1333.13 226.438 1335.19 229.334Z" fill="black"/>
<path d="M802.078 133.768L447.636 144.008C447.636 144.008 418.536 148.742 415.044 208.398C411.552 268.055 424.356 328.617 424.356 328.617L769.485 323.04C782.863 318.604 790.168 311.706 802.078 273.931C820.117 191.7 820.797 176.172 817.792 162.148C814.097 146.773 809.915 141.862 802.078 133.768Z" fill="black"/>
<path d="M1304.7 140.718C1308.89 161.551 1310.59 174.01 1311.91 196.32C1311.91 196.32 1275.83 199.216 1267.68 196.32C1260.12 194.583 1260.7 187.632 1260.7 187.632C1261.2 184.157 1272.34 134.926 1304.7 140.718Z" fill="black"/>
<path fill-rule="evenodd" clip-rule="evenodd" d="M27.4285 210.221C33.8306 192.266 55.3648 185.316 55.3648 185.316C81.0396 177.494 96.527 174.313 119.574 169.578L119.597 169.574C122.143 169.051 124.78 168.509 127.533 167.94C129.867 166.267 131.152 165.449 133.354 164.465C160.823 154.121 196.817 149.904 244.656 144.298C271.822 141.115 302.807 137.484 338.219 132.03C346.558 134.777 351.868 136.003 362.082 137.822C447.023 92.1169 495.308 66.5542 586.154 21.4056C644.322 5.10552 696.663 1.20294 739.221 1.13405C823.199 -1.83194 903.871 0.245013 981.335 16.7721C1059.92 43.3981 1103.25 59.6661 1178.05 93.2248L1190.86 96.1207C1211.42 98.6558 1227.4 100.425 1242.94 102.145C1259.37 103.964 1275.3 105.728 1295.62 108.284C1296.51 108.062 1297.25 107.883 1297.88 107.731C1300.56 107.083 1301.3 106.904 1303.18 105.967C1303.18 105.967 1306.48 104.229 1307.84 104.229C1307.93 104.237 1308.02 104.245 1308.11 104.252L1308.11 104.252L1308.12 104.253C1309.25 104.346 1309.96 104.405 1310.75 105.388C1311.27 106.656 1311.28 107.289 1310.75 108.284C1310.73 108.404 1310.65 108.541 1310.53 108.747L1310.53 108.748L1310.53 108.749L1310.53 108.751C1310.11 109.482 1309.19 111.073 1308.42 115.813C1305.92 125.003 1304.79 130.17 1304.42 137.243C1276.99 132.61 1260.7 164.465 1256.62 189.37C1256.62 196.32 1259.73 199.099 1267.1 200.374C1285.28 201.812 1295.48 201.677 1313.66 199.795C1315.43 200.932 1315.16 205.769 1313.66 217.75L1159.43 223.542L1112.29 226.438C1075.04 203.27 1030.81 213.696 1030.81 213.696C1030.81 213.696 953.399 220.067 941.177 320.266L778.394 322.896C784.809 321.499 794.471 314.572 807.898 273.931C825.937 191.7 827.781 176.172 824.776 162.148C821.081 146.773 816.899 141.862 809.062 133.768L1033.13 126.238C1042.7 116.37 1046.57 111.784 1048.85 106.546C1048.85 106.546 1053.5 90.908 1016.84 75.8492C1016.84 75.8492 933.029 27.1975 832.924 23.7223L809.062 133.768H802.078C807.078 111.828 810.398 94.9969 813.718 78.1659C817.038 61.335 820.358 44.5041 825.358 22.564C825.358 22.564 671.127 12.1386 604.778 43.4147C529.737 79.5432 499.064 101.95 447.863 139.353C445.692 140.938 443.484 142.551 441.234 144.193C441.234 144.193 414.462 148.827 410.97 208.483C407.478 268.139 420.282 328.683 420.282 328.683L331.817 330.112C331.817 288.99 312.029 250.764 277.691 228.175C237.532 200.954 167.11 195.162 121.131 253.08L23.9365 254.239V252.501C23.653 231.064 24.1783 221.09 27.4285 210.221ZM37.3226 210.221C26.2645 216.592 30.3386 242.076 30.3386 242.076H35.5766C39.6507 242.076 44.3067 242.076 47.7987 246.709H90.8671C95.3634 246.332 97.3299 245.135 99.0152 239.759C99.0152 239.759 103.089 211.958 70.4969 206.745C57.6928 205.587 44.5663 206.176 37.3226 210.221ZM33.2486 239.18C32.0846 228.755 33.2486 217.75 39.6507 212.537C50.1268 208.483 60.0208 209.062 70.4969 210.221C84.4651 212.537 96.887 220.866 95.5232 239.759C94.1758 243.394 92.9637 243.659 90.2851 243.813C90.2851 243.813 57.6928 243.234 50.1268 243.813C46.6347 240.338 42.5607 238.601 35.5766 239.18H33.2486Z" fill="black"/>
<path fill-rule="evenodd" clip-rule="evenodd" d="M288.749 313.895C288.749 354.839 255.396 388.031 214.252 388.031C173.109 388.031 139.756 354.839 139.756 313.895C139.756 272.951 173.109 239.759 214.252 239.759C255.396 239.759 288.749 272.951 288.749 313.895ZM154.737 321.437C154.963 328.284 155.178 330.655 158.38 336.483C175.974 329.504 185.156 324.9 184.57 322.583C183.984 320.266 177.113 319.346 154.737 321.437ZM178.627 265.66C172.701 269.146 170.716 270.473 167.117 276.067C181.72 288.071 190.188 293.873 191.949 292.249C193.709 290.625 191.219 284.185 178.627 265.66ZM191.962 370.623C198.223 373.472 200.451 374.336 207.121 374.08C208.68 355.296 208.628 345.063 206.283 344.553C203.938 344.043 200.049 349.756 191.962 370.623ZM250.803 362.61C256.473 358.725 258.361 357.265 261.563 351.436C246.16 340.466 237.309 335.26 235.665 337.002C234.022 338.744 236.954 344.996 250.803 362.61ZM274.301 308.199C273.893 301.36 273.615 298.997 270.259 293.254C252.857 300.696 243.801 305.54 244.448 307.841C245.096 310.141 251.989 310.88 274.301 308.199ZM240.541 258.795C234.54 255.438 232.392 254.392 225.723 254.096C222.601 272.686 221.798 282.888 224.092 283.59C226.387 284.292 230.739 278.921 240.541 258.795ZM211.924 374.71C211.924 374.71 214.252 346.909 221.818 345.75C228.802 342.854 246.263 366.022 246.263 366.022C237.532 372.972 222.982 376.447 211.924 374.71ZM160.16 343.428C160.16 343.428 185.343 331.172 190.219 337.045C196.297 341.529 185.252 368.322 185.252 368.322C174.781 364.422 164.326 353.769 160.16 343.428ZM163.685 281.666C163.685 281.666 186.385 298.037 183.465 305.079C182.34 312.525 153.384 315.402 153.384 315.402C151.926 304.372 156.468 290.183 163.685 281.666ZM264.028 347.041C264.028 347.041 241.887 329.932 245.039 322.99C246.411 315.585 275.447 313.663 275.447 313.663C276.537 324.736 271.525 338.767 264.028 347.041ZM268.364 288.364C268.364 288.364 242.35 298.761 237.917 292.55C232.184 287.637 245.161 261.717 245.161 261.717C255.319 266.365 264.965 277.749 268.364 288.364ZM217.603 253.19C217.603 253.19 215.109 280.976 207.536 282.09C200.535 284.945 183.213 261.674 183.213 261.674C191.985 254.776 206.555 251.387 217.603 253.19Z" fill="black"/>
<path fill-rule="evenodd" clip-rule="evenodd" d="M214.834 413.515C269.799 413.515 314.357 369.173 314.357 314.474C314.357 259.775 269.799 215.433 214.834 215.433C159.869 215.433 115.311 259.775 115.311 314.474C115.311 369.173 159.869 413.515 214.834 413.515ZM268.364 288.364C268.364 288.364 242.35 298.761 237.917 292.55C232.184 287.637 245.161 261.717 245.161 261.717C255.319 266.365 264.965 277.749 268.364 288.364ZM225.723 254.096C232.392 254.392 234.54 255.438 240.541 258.795C230.739 278.921 226.387 284.292 224.092 283.59C221.798 282.888 222.601 272.686 225.723 254.096ZM217.603 253.19C217.603 253.19 215.109 280.976 207.536 282.09C200.535 284.945 183.213 261.674 183.213 261.674C191.985 254.776 206.555 251.387 217.603 253.19ZM167.117 276.067C170.716 270.473 172.701 269.146 178.627 265.66C191.219 284.185 193.709 290.625 191.949 292.249C190.188 293.873 181.72 288.071 167.117 276.067ZM163.685 281.666C163.685 281.666 186.385 298.037 183.465 305.079C182.34 312.525 153.384 315.402 153.384 315.402C151.926 304.372 156.468 290.183 163.685 281.666ZM158.38 336.483C155.178 330.655 154.963 328.284 154.737 321.437C177.113 319.346 183.984 320.266 184.57 322.583C185.156 324.9 175.974 329.504 158.38 336.483ZM160.16 343.428C160.16 343.428 185.343 331.172 190.219 337.045C196.297 341.529 185.252 368.322 185.252 368.322C174.781 364.422 164.326 353.769 160.16 343.428ZM207.121 374.08C200.451 374.336 198.223 373.472 191.962 370.623C200.049 349.756 203.938 344.043 206.283 344.553C208.628 345.063 208.68 355.296 207.121 374.08ZM211.924 374.71C211.924 374.71 214.252 346.909 221.818 345.75C228.802 342.854 246.263 366.022 246.263 366.022C237.532 372.972 222.982 376.447 211.924 374.71ZM261.563 351.436C258.361 357.265 256.473 358.725 250.803 362.61C236.954 344.996 234.022 338.744 235.665 337.002C237.309 335.26 246.16 340.466 261.563 351.436ZM264.028 347.041C264.028 347.041 241.887 329.932 245.039 322.99C246.411 315.585 275.447 313.663 275.447 313.663C276.537 324.736 271.525 338.767 264.028 347.041ZM292.241 313.895C292.241 356.758 257.324 391.506 214.252 391.506C171.18 391.506 136.264 356.758 136.264 313.895C136.264 271.032 171.18 236.284 214.252 236.284C257.324 236.284 292.241 271.032 292.241 313.895ZM214.252 388.031C255.396 388.031 288.749 354.839 288.749 313.895C288.749 272.951 255.396 239.759 214.252 239.759C173.109 239.759 139.756 272.951 139.756 313.895C139.756 354.839 173.109 388.031 214.252 388.031ZM274.301 308.199C273.893 301.36 273.615 298.997 270.259 293.254C252.857 300.696 243.801 305.54 244.448 307.841C245.096 310.141 251.989 310.88 274.301 308.199Z" fill="black"/>
<path fill-rule="evenodd" clip-rule="evenodd" d="M1114.35 358.857C1091.2 392.706 1044.87 401.47 1010.85 378.432C976.84 355.395 968.033 309.28 991.182 275.432C1014.33 241.584 1060.67 232.82 1094.68 255.857C1128.7 278.894 1137.5 325.009 1114.35 358.857ZM999.303 290.056C995.618 295.842 994.456 297.922 993.808 304.534C1012.3 308.615 1022.49 309.95 1023.32 307.707C1024.14 305.464 1018.98 300.856 999.303 290.056ZM1050.59 257.322C1043.72 256.885 1041.33 256.87 1035.19 259.48C1040.47 277.58 1044.19 287.119 1046.57 286.762C1048.94 286.404 1050.52 279.687 1050.59 257.322ZM1002.27 351.56C1005.83 357.421 1007.19 359.383 1012.85 362.906C1024.75 348.25 1030.5 339.762 1028.85 338.027C1027.2 336.293 1020.75 338.838 1002.27 351.56ZM1055.44 377.883C1062.33 377.845 1064.71 377.696 1070.65 374.67C1064.12 356.977 1059.75 347.717 1057.41 348.237C1055.06 348.757 1053.95 355.567 1055.44 377.883ZM1105.63 346.059C1109.16 340.177 1110.27 338.067 1110.74 331.441C1092.15 327.849 1081.92 326.783 1081.15 329.047C1080.39 331.311 1085.67 335.782 1105.63 346.059ZM1105.65 286.313C1102.59 280.178 1101.41 278.111 1096.06 274.132C1082.97 287.753 1076.54 295.736 1078.04 297.601C1079.54 299.466 1086.17 297.463 1105.65 286.313ZM1016.46 366.116C1016.46 366.116 1034.1 344.437 1041.01 347.716C1048.42 349.232 1049.76 378.161 1049.76 378.161C1038.61 379.018 1024.62 373.744 1016.46 366.116ZM991.353 311.271C991.353 311.271 1019.1 315.24 1019.81 322.825C1022.3 329.936 998.021 345.9 998.021 345.9C991.57 336.814 988.951 322.153 991.353 311.271ZM1029.19 262.188C1029.19 262.188 1038.7 288.431 1032.3 292.618C1027.16 298.143 1001.6 284.309 1001.6 284.309C1006.63 274.374 1018.41 265.188 1029.19 262.188ZM1075.18 372.418C1075.18 372.418 1066.55 345.875 1073.08 341.902C1078.4 336.548 1103.49 351.218 1103.49 351.218C1098.13 360.982 1086.05 369.775 1075.18 372.418ZM1111.94 326.337C1111.94 326.337 1084.55 320.366 1084.4 312.75C1082.44 305.478 1107.82 291.316 1107.82 291.316C1113.59 300.846 1115.13 315.658 1111.94 326.337ZM1089.86 268.836C1089.86 268.836 1072.09 290.411 1065.2 287.091C1057.8 285.531 1056.63 256.594 1056.63 256.594C1067.79 255.803 1081.75 261.16 1089.86 268.836Z" fill="black"/>
<path fill-rule="evenodd" clip-rule="evenodd" d="M996.925 399.826C1042.36 430.602 1104.27 418.894 1135.2 373.675C1166.12 328.456 1154.36 266.849 1108.92 236.073C1063.48 205.296 1001.57 217.005 970.647 262.224C939.721 307.443 951.486 369.049 996.925 399.826ZM1111.94 326.337C1111.94 326.337 1084.55 320.366 1084.4 312.75C1082.44 305.478 1107.82 291.316 1107.82 291.316C1113.59 300.846 1115.13 315.658 1111.94 326.337ZM1096.06 274.132C1101.41 278.111 1102.59 280.178 1105.65 286.313C1086.17 297.463 1079.54 299.466 1078.04 297.601C1076.54 295.736 1082.97 287.753 1096.06 274.132ZM1089.86 268.836C1089.86 268.836 1072.09 290.411 1065.2 287.091C1057.8 285.531 1056.63 256.594 1056.63 256.594C1067.79 255.803 1081.75 261.16 1089.86 268.836ZM1035.19 259.48C1041.33 256.87 1043.72 256.885 1050.59 257.322C1050.52 279.687 1048.94 286.404 1046.57 286.762C1044.19 287.119 1040.47 277.58 1035.19 259.48ZM1029.19 262.188C1029.19 262.188 1038.7 288.431 1032.3 292.618C1027.16 298.143 1001.6 284.309 1001.6 284.309C1006.63 274.374 1018.41 265.188 1029.19 262.188ZM993.808 304.534C994.456 297.922 995.618 295.842 999.303 290.056C1018.98 300.856 1024.14 305.464 1023.32 307.707C1022.49 309.95 1012.3 308.615 993.808 304.534ZM991.353 311.271C991.353 311.271 1019.1 315.24 1019.81 322.825C1022.3 329.936 998.021 345.9 998.021 345.9C991.57 336.814 988.951 322.153 991.353 311.271ZM1012.85 362.906C1007.19 359.383 1005.83 357.421 1002.27 351.56C1020.75 338.838 1027.2 336.293 1028.85 338.027C1030.5 339.762 1024.75 348.25 1012.85 362.906ZM1016.46 366.116C1016.46 366.116 1034.1 344.437 1041.01 347.716C1048.42 349.232 1049.76 378.161 1049.76 378.161C1038.61 379.018 1024.62 373.744 1016.46 366.116ZM1070.65 374.67C1064.71 377.696 1062.33 377.845 1055.44 377.883C1053.95 355.567 1055.06 348.757 1057.41 348.237C1059.75 347.717 1064.12 356.977 1070.65 374.67ZM1075.18 372.418C1075.18 372.418 1066.55 345.875 1073.08 341.902C1078.4 336.548 1103.49 351.218 1103.49 351.218C1098.13 360.982 1086.05 369.775 1075.18 372.418ZM1117.24 360.813C1093.01 396.248 1044.5 405.422 1008.89 381.305C973.281 357.188 964.061 308.912 988.296 273.477C1012.53 238.042 1061.04 228.867 1096.65 252.984C1132.26 277.101 1141.48 325.378 1117.24 360.813ZM1010.85 378.432C1044.87 401.47 1091.2 392.706 1114.35 358.857C1137.5 325.009 1128.7 278.894 1094.68 255.857C1060.67 232.82 1014.33 241.584 991.182 275.432C968.033 309.28 976.84 355.395 1010.85 378.432ZM1105.63 346.059C1109.16 340.177 1110.27 338.067 1110.74 331.441C1092.15 327.849 1081.92 326.783 1081.15 329.047C1080.39 331.311 1085.67 335.782 1105.63 346.059Z" fill="black"/>
</svg>
