<svg width="1524" height="426" viewBox="0 0 1524 426" fill="none" xmlns="http://www.w3.org/2000/svg">
<path d="M327.174 282.003L327.575 361H307.124L307.926 283.206V240.299H157.551V282.003L158.353 361H137.501L138.303 283.206L137.501 104.761H158.353L157.952 222.254H307.525L307.124 104.761H327.976L327.174 282.003ZM420.911 282.003L421.713 361H400.861L402.064 283.206L400.861 104.761H422.114L420.911 282.003ZM557.605 103.157C575.249 103.157 593.027 107.167 610.938 115.187L607.329 134.435L603.319 135.638C595.834 130.826 587.814 127.217 579.259 124.811C570.972 122.138 562.952 120.801 555.199 120.801C543.971 120.801 534.08 123.207 525.525 128.019C517.238 132.564 510.822 138.579 506.277 146.064C502 153.549 499.861 161.168 499.861 168.921C499.861 177.208 502.267 184.426 507.079 190.575C511.891 196.724 517.772 202.07 524.723 206.615C531.941 210.892 541.565 215.838 553.595 221.452C567.764 228.403 579.125 234.685 587.68 240.299C596.502 245.646 603.987 252.73 610.136 261.552C616.285 270.107 619.359 280.533 619.359 292.83C619.359 305.395 615.884 317.157 608.933 328.118C602.25 338.811 592.626 347.366 580.061 353.782C567.764 359.931 553.862 363.005 538.357 363.005C527.396 363.005 516.168 361.535 504.673 358.594C493.178 355.386 482.752 350.841 473.395 344.96L475.801 323.707L478.608 322.504C487.43 330.257 497.321 336.138 508.282 340.148C519.243 343.891 529.802 345.762 539.961 345.762C551.724 345.762 562.016 343.356 570.838 338.544C579.66 333.732 586.477 327.45 591.289 319.697C596.101 311.944 598.507 303.791 598.507 295.236C598.507 286.414 595.967 278.795 590.888 272.379C586.076 265.696 580.061 260.215 572.843 255.938C565.892 251.661 556.135 246.448 543.57 240.299C529.669 233.616 518.441 227.601 509.886 222.254C501.331 216.907 494.113 209.957 488.232 201.402C482.351 192.847 479.41 182.555 479.41 170.525C479.41 158.228 482.618 147 489.034 136.841C495.717 126.415 504.94 118.261 516.703 112.38C528.733 106.231 542.367 103.157 557.605 103.157ZM814.64 107.167L812.635 123.207L769.728 122.004H738.45L737.247 282.003L738.049 361H717.197L718.4 283.206L717.197 122.004H685.919L642.21 123.207L640.606 120.801L642.611 104.761H812.635L814.64 107.167ZM953.545 102.355C988.031 102.355 1014.5 113.316 1032.94 135.237C1051.39 156.891 1060.61 187.902 1060.61 228.269C1060.61 271.844 1050.85 305.261 1031.34 328.519C1011.82 351.777 984.021 363.406 947.931 363.406C913.98 363.406 887.781 352.312 869.335 330.123C850.889 307.667 841.666 275.721 841.666 234.284C841.666 192.045 851.29 159.564 870.538 136.841C890.054 113.85 917.723 102.355 953.545 102.355ZM952.342 119.999C922.936 119.999 900.613 129.489 885.375 148.47C870.137 167.451 862.518 195.387 862.518 232.279C862.518 269.973 869.87 298.444 884.573 317.692C899.277 336.94 920.931 346.564 949.535 346.564C978.942 346.564 1001.26 336.806 1016.5 317.291C1031.74 297.776 1039.36 269.171 1039.36 231.477C1039.36 194.585 1032.01 166.782 1017.3 148.069C1002.6 129.356 980.947 119.999 952.342 119.999ZM1198.1 255.938C1218.15 288.285 1241.27 321.702 1267.47 356.188V358.995C1263.19 361.134 1257.18 362.871 1249.43 364.208L1246.22 362.604C1220.29 325.445 1198.37 291.493 1180.45 260.75H1129.93V282.003L1130.73 361H1109.88L1111.08 283.206L1109.88 104.761L1178.05 104.36C1202.38 104.36 1221.09 110.509 1234.19 122.806C1247.29 135.103 1253.84 152.881 1253.84 176.139C1253.84 194.852 1249.03 211.16 1239.4 225.061C1229.78 238.695 1216.01 248.987 1198.1 255.938ZM1130.33 242.304L1182.46 243.106C1198.77 238.561 1211.2 230.809 1219.75 219.848C1228.31 208.62 1232.58 194.451 1232.58 177.342C1232.58 159.431 1227.64 145.93 1217.75 136.841C1208.12 127.484 1194.09 122.539 1175.64 122.004L1131.13 122.806L1130.33 242.304ZM1374.05 284.409L1374.86 361H1354L1354.81 284.409L1354.4 266.364L1273.4 104.761H1296.66L1301.47 117.192L1364.03 241.502H1366.43L1434.6 117.593L1439.82 104.761H1462.67L1374.45 265.562L1374.05 284.409Z" fill="black"/>
<path d="M4.99998 12L4.99998 425.5" stroke="black" stroke-width="10"/>
</svg>
